<svg width="48" height="48" viewBox="0 0 48 48" fill="none" xmlns="http://www.w3.org/2000/svg">
<path d="M23 25V29.6667C23 29.95 23.0964 30.1875 23.2892 30.3792C23.482 30.5708 23.7209 30.6667 24.0058 30.6667C24.2908 30.6667 24.5278 30.5708 24.7167 30.3792C24.9056 30.1875 25 29.95 25 29.6667V25H29.6667C29.95 25 30.1875 24.9036 30.3792 24.7108C30.5708 24.518 30.6667 24.2791 30.6667 23.9942C30.6667 23.7092 30.5708 23.4722 30.3792 23.2833C30.1875 23.0944 29.95 23 29.6667 23H25V18.3333C25 18.05 24.9036 17.8125 24.7108 17.6208C24.518 17.4292 24.2791 17.3333 23.9942 17.3333C23.7092 17.3333 23.4722 17.4292 23.2833 17.6208C23.0944 17.8125 23 18.05 23 18.3333V23H18.3333C18.05 23 17.8125 23.0964 17.6208 23.2892C17.4292 23.482 17.3333 23.7209 17.3333 24.0058C17.3333 24.2908 17.4292 24.5278 17.6208 24.7167C17.8125 24.9056 18.05 25 18.3333 25H23ZM14 36C13.4667 36 13 35.8 12.6 35.4C12.2 35 12 34.5333 12 34V14C12 13.4667 12.2 13 12.6 12.6C13 12.2 13.4667 12 14 12H34C34.5333 12 35 12.2 35.4 12.6C35.8 13 36 13.4667 36 14V34C36 34.5333 35.8 35 35.4 35.4C35 35.8 34.5333 36 34 36H14ZM14 34H34V14H14V34Z" fill="#C6512C"/>
</svg>
